# xmcd
#
# Track frame offsets:
#	182
#	16037
#	31300
#	47937
#	67560
#	83717
#	101385
#	122302
#	135610
#	153280
#	171695
#	185445
#
# Disc length: 2670 seconds
#
# Revision: 4
# Processed by: cddbd v1.4PL0 Copyright (c) Steve Scherf et al.
# Submitted via: EasyCDDAExtractor 6.2.0.3
#
DISCID=8a0a6c0c
DTITLE=Various Artist - The Thing Called Love
DYEAR=1993
DGENRE=Country
TTITLE0=Dreaming With My Eyes Open
TTITLE1=You'd Be Home By Now
TTITLE2=I Can't Understand
TTITLE3=I Don't Remember Your Name (But I Remember You)
TTITLE4=Diamonds And Tears
TTITLE5=Ready And Waiting
TTITLE6=Until Now
TTITLE7=Looking For A Thing Called Love
TTITLE8=Streets Of Love
TTITLE9=Partners In Wine
TTITLE10=Blame It On Your Heart
TTITLE11=Standing On A Rock
EXTD=http://nav.to/wojtus                                      (collection)
EXTT0=
EXTT1=
EXTT2=
EXTT3=
EXTT4=
EXTT5=
EXTT6=
EXTT7=
EXTT8=
EXTT9=
EXTT10=
EXTT11=
PLAYORDER=
